<?xml version="1.0" encoding="UTF-8" standalone="no"?><!DOCTYPE svg PUBLIC "-//W3C//DTD SVG 1.1//EN" "http://www.w3.org/Graphics/SVG/1.1/DTD/svg11.dtd"><!-- Generated by graphviz version 2.40.1 (20161225.0304)
 --><!-- Title: %0 Pages: 1 --><svg xmlns="http://www.w3.org/2000/svg" xmlns:xlink="http://www.w3.org/1999/xlink" width="166pt" height="282pt" viewBox="0.00 0.00 166.39 281.55">
<g id="graph0" class="graph" transform="scale(1 1) rotate(0) translate(4 277.5476)">
<title>%0</title>
<polygon fill="#ffffff" stroke="transparent" points="-4,4 -4,-277.5476 162.3869,-277.5476 162.3869,4 -4,4"/>
<!-- n0 -->
<g id="node1" class="node">
<title>n0</title>
<ellipse fill="#1e90ff" stroke="#000000" cx="44.6935" cy="-252.8542" rx="20.8887" ry="20.8887"/>
<text text-anchor="middle" x="44.6935" y="-248.6542" font-family="Times,serif" font-size="14.00" fill="#000000">n0</text>
</g>
<!-- n1 -->
<g id="node2" class="node">
<title>n1</title>
<ellipse fill="none" stroke="#000000" cx="20.6935" cy="-175.4673" rx="20.8887" ry="20.8887"/>
<text text-anchor="middle" x="20.6935" y="-171.2673" font-family="Times,serif" font-size="14.00" fill="#000000">n1</text>
</g>
<!-- n0&#45;&gt;n1 -->
<g id="edge1" class="edge">
<title>n0-&gt;n1</title>
<path fill="none" stroke="#000000" d="M33.4867,-235.2939C29.9201,-226.6885 26.3408,-216.0715 23.5981,-206.1816"/>
<polygon fill="#000000" stroke="#000000" points="26.9308,-205.085 21.0784,-196.2532 20.1459,-206.807 26.9308,-205.085"/>
</g>
<!-- n2 -->
<g id="node3" class="node">
<title>n2</title>
<ellipse fill="#00ff00" stroke="#000000" cx="39.6935" cy="-98.0804" rx="20.8887" ry="20.8887"/>
<text text-anchor="middle" x="39.6935" y="-93.8804" font-family="Times,serif" font-size="14.00" fill="#000000">n2</text>
</g>
<!-- n0&#45;&gt;n2 -->
<g id="edge2" class="edge">
<title>n0-&gt;n2</title>
<path fill="none" stroke="#000000" d="M47.8411,-232.1563C50.4187,-212.2837 53.256,-181.4346 50.6935,-154.7738 49.8614,-146.1176 48.3305,-136.8191 46.6698,-128.3072"/>
<polygon fill="#000000" stroke="#000000" points="50.0753,-127.4919 44.6179,-118.4107 43.2211,-128.9131 50.0753,-127.4919"/>
</g>
<!-- n3 -->
<g id="node4" class="node">
<title>n3</title>
<ellipse fill="#ff0000" stroke="#000000" cx="118.6935" cy="-175.4673" rx="20.8887" ry="20.8887"/>
<text text-anchor="middle" x="118.6935" y="-171.2673" font-family="Times,serif" font-size="14.00" fill="#000000">n3</text>
</g>
<!-- n0&#45;&gt;n3 -->
<g id="edge3" class="edge">
<title>n0-&gt;n3</title>
<path fill="none" stroke="#000000" d="M59.3135,-237.565C70.1267,-226.2569 85.0248,-210.6769 97.1929,-197.9518"/>
<polygon fill="#000000" stroke="#000000" points="99.9741,-200.1077 104.3556,-190.4613 94.9148,-195.2699 99.9741,-200.1077"/>
</g>
<!-- n1&#45;&gt;n0 -->
<g id="edge5" class="edge">
<title>n1-&gt;n0</title>
<path fill="none" stroke="#000000" d="M31.9353,-193.1123C35.4979,-201.721 39.0705,-212.328 41.8065,-222.2036"/>
<polygon fill="#000000" stroke="#000000" points="38.4692,-223.2826 44.3193,-232.1159 45.2546,-221.5624 38.4692,-223.2826"/>
</g>
<!-- n1&#45;&gt;n2 -->
<g id="edge4" class="edge">
<title>n1-&gt;n2</title>
<path fill="none" stroke="#000000" d="M25.6855,-155.1348C27.7145,-146.8704 30.1008,-137.1512 32.3231,-128.0997"/>
<polygon fill="#000000" stroke="#000000" points="35.7494,-128.8232 34.7348,-118.2771 28.9513,-127.1541 35.7494,-128.8232"/>
</g>
<!-- n4 -->
<g id="node5" class="node">
<title>n4</title>
<ellipse fill="#ff0000" stroke="#000000" cx="108.6935" cy="-98.0804" rx="20.8887" ry="20.8887"/>
<text text-anchor="middle" x="108.6935" y="-93.8804" font-family="Times,serif" font-size="14.00" fill="#000000">n4</text>
</g>
<!-- n3&#45;&gt;n4 -->
<g id="edge6" class="edge">
<title>n3-&gt;n4</title>
<path fill="none" stroke="#000000" d="M110.3058,-156.3379C108.4533,-148.0128 106.9313,-138.0479 106.0357,-128.7334"/>
<polygon fill="#000000" stroke="#000000" points="109.5164,-128.338 105.3066,-118.6155 102.5345,-128.8412 109.5164,-128.338"/>
</g>
<!-- n5 -->
<g id="node6" class="node">
<title>n5</title>
<ellipse fill="#ff0000" stroke="#000000" cx="137.6935" cy="-20.6935" rx="20.8887" ry="20.8887"/>
<text text-anchor="middle" x="137.6935" y="-16.4935" font-family="Times,serif" font-size="14.00" fill="#000000">n5</text>
</g>
<!-- n3&#45;&gt;n5 -->
<g id="edge7" class="edge">
<title>n3-&gt;n5</title>
<path fill="none" stroke="#000000" d="M119.8495,-154.6538C123.1284,-144.1269 127.5974,-131.0158 129.6935,-118.7738 133.5246,-96.398 133.0944,-70.729 133.0731,-51.2646"/>
<polygon fill="#000000" stroke="#000000" points="136.5736,-51.1703 133.133,-41.1497 129.5737,-51.1288 136.5736,-51.1703"/>
</g>
<!-- n4&#45;&gt;n3 -->
<g id="edge8" class="edge">
<title>n4-&gt;n3</title>
<path fill="none" stroke="#000000" d="M117.0385,-117.0191C118.8957,-125.3171 120.4248,-135.2716 121.3299,-144.5941"/>
<polygon fill="#000000" stroke="#000000" points="117.851,-145.0109 122.0711,-154.729 124.8323,-144.5003 117.851,-145.0109"/>
</g>
<!-- n4&#45;&gt;n5 -->
<g id="edge9" class="edge">
<title>n4-&gt;n5</title>
<path fill="none" stroke="#000000" d="M110.4075,-77.3421C113.1306,-68.0073 117.1755,-56.881 121.4153,-46.9703"/>
<polygon fill="#000000" stroke="#000000" points="124.7331,-48.1288 125.6784,-37.5762 118.3587,-45.2361 124.7331,-48.1288"/>
</g>
<!-- n5&#45;&gt;n3 -->
<g id="edge11" class="edge">
<title>n5-&gt;n3</title>
<path fill="none" stroke="#000000" d="M146.6013,-39.6556C150.7119,-59.5291 152.349,-91.5829 147.6935,-118.7738 145.8176,-129.7299 142.0411,-141.3821 137.6221,-151.255"/>
<polygon fill="#000000" stroke="#000000" points="134.3703,-149.9327 133.0354,-160.4431 140.6333,-153.0592 134.3703,-149.9327"/>
</g>
<!-- n5&#45;&gt;n4 -->
<g id="edge10" class="edge">
<title>n5-&gt;n4</title>
<path fill="none" stroke="#000000" d="M135.9896,-41.3968C133.2898,-50.6584 129.2862,-61.6889 125.0811,-71.5471"/>
<polygon fill="#000000" stroke="#000000" points="121.7804,-70.3518 120.8495,-80.9057 128.1587,-73.2359 121.7804,-70.3518"/>
</g>
</g>
</svg>