<svg class="railroad-diagram" width="568" height="101" viewBox="0 0 568 101" xmlns="http://www.w3.org/2000/svg" xmlns:xlink="http://www.w3.org/1999/xlink">
<g transform="translate(.5 .5)">
<g>
<path d="M20 60v20m10 -20v20m-10 -10h20"></path>
</g>
<g>
<path d="M40 70h0"></path>
<path d="M528 70h0"></path>
<path d="M40 70a10 10 0 0 0 10 -10v-19a10 10 0 0 1 10 -10"></path>
<g>
<path d="M60 31h15"></path>
<path d="M493 31h15"></path>
<g class="terminal ">
<path d="M75 31h0"></path>
<path d="M129 31h0"></path>
<rect x="75" y="20" width="54" height="22" rx="10" ry="10"></rect>
<text x="102" y="35">elif</text>
</g>
<path d="M129 31h10"></path>
<path d="M139 31h10"></path>
<g class="non-terminal ">
<path d="M149 31h0"></path>
<path d="M245.5 31h0"></path>
<rect x="149" y="20" width="96.5" height="22"></rect>
<text x="197.25" y="35">выражение</text>
</g>
<path d="M245.5 31h10"></path>
<path d="M255.5 31h10"></path>
<g class="terminal ">
<path d="M265.5 31h0"></path>
<path d="M294 31h0"></path>
<rect x="265.5" y="20" width="28.5" height="22" rx="10" ry="10"></rect>
<text x="279.75" y="35">:</text>
</g>
<path d="M294 31h10"></path>
<path d="M304 31h10"></path>
<g class="non-terminal ">
<path d="M314 31h0"></path>
<path d="M368 31h0"></path>
<rect x="314" y="20" width="54" height="22"></rect>
<text x="341" y="35">блок</text>
</g>
<path d="M368 31h10"></path>
<path d="M378 31h10"></path>
<g class="non-terminal ">
<path d="M388 31h0"></path>
<path d="M493 31h0"></path>
<rect x="388" y="20" width="105" height="22"></rect>
<text x="440.5" y="35">часть-elif</text>
</g>
</g>
<path d="M508 31a10 10 0 0 1 10 10v19a10 10 0 0 0 10 10"></path>
<path d="M40 70h20"></path>
<g>
<path d="M60 70h0"></path>
<path d="M508 70h0"></path>
<g class="terminal ">
<path d="M60 70h0"></path>
<path d="M114 70h0"></path>
<rect x="60" y="59" width="54" height="22" rx="10" ry="10"></rect>
<text x="87" y="74">elif</text>
</g>
<path d="M114 70h10"></path>
<path d="M124 70h10"></path>
<g class="non-terminal ">
<path d="M134 70h0"></path>
<path d="M230.5 70h0"></path>
<rect x="134" y="59" width="96.5" height="22"></rect>
<text x="182.25" y="74">выражение</text>
</g>
<path d="M230.5 70h10"></path>
<path d="M240.5 70h10"></path>
<g class="terminal ">
<path d="M250.5 70h0"></path>
<path d="M279 70h0"></path>
<rect x="250.5" y="59" width="28.5" height="22" rx="10" ry="10"></rect>
<text x="264.75" y="74">:</text>
</g>
<path d="M279 70h10"></path>
<path d="M289 70h10"></path>
<g class="non-terminal ">
<path d="M299 70h0"></path>
<path d="M353 70h0"></path>
<rect x="299" y="59" width="54" height="22"></rect>
<text x="326" y="74">блок</text>
</g>
<path d="M353 70h10"></path>
<g>
<path d="M363 70h0"></path>
<path d="M508 70h0"></path>
<path d="M363 70a10 10 0 0 0 10 -10v0a10 10 0 0 1 10 -10"></path>
<g>
<path d="M383 50h105"></path>
</g>
<path d="M488 50a10 10 0 0 1 10 10v0a10 10 0 0 0 10 10"></path>
<path d="M363 70h20"></path>
<g class="non-terminal ">
<path d="M383 70h0"></path>
<path d="M488 70h0"></path>
<rect x="383" y="59" width="105" height="22"></rect>
<text x="435.5" y="74">часть-else</text>
</g>
<path d="M488 70h20"></path>
</g>
</g>
<path d="M508 70h20"></path>
</g>
<path d="M 528 70 h 20 m -10 -10 v 20 m 10 -20 v 20"></path>
</g>
<style>
    svg {
        background-color: hsl(30,20%,95%);
    }
    path {
        stroke-width: 3;
        stroke: black;
        fill: rgba(0,0,0,0);
    }
    text {
        font: bold 14px monospace;
        text-anchor: middle;
        white-space: pre;
    }
    text.diagram-text {
        font-size: 12px;
    }
    text.diagram-arrow {
        font-size: 16px;
    }
    text.label {
        text-anchor: start;
    }
    text.comment {
        font: italic 12px monospace;
    }
    g.non-terminal text {
        /&#42;font-style: italic;&#42;/
    }
    rect {
        stroke-width: 3;
        stroke: black;
        fill: hsl(120,100%,90%);
    }
    rect.group-box {
        stroke: gray;
        stroke-dasharray: 10 5;
        fill: none;
    }
    path.diagram-text {
        stroke-width: 3;
        stroke: black;
        fill: white;
        cursor: help;
    }
    g.diagram-text:hover path.diagram-text {
        fill: #eee;
    }</style>
</svg>
