<?xml version="1.0" encoding="UTF-8" standalone="no"?><!DOCTYPE svg PUBLIC "-//W3C//DTD SVG 1.1//EN" "http://www.w3.org/Graphics/SVG/1.1/DTD/svg11.dtd"><!-- Generated by graphviz version 2.40.1 (20161225.0304)
 --><!-- Title: %0 Pages: 1 --><svg xmlns="http://www.w3.org/2000/svg" xmlns:xlink="http://www.w3.org/1999/xlink" width="172pt" height="765pt" viewBox="0.00 0.00 172.22 765.18">
<g id="graph0" class="graph" transform="scale(1 1) rotate(0) translate(4 761.1829)">
<title>%0</title>
<polygon fill="#ffffff" stroke="transparent" points="-4,4 -4,-761.1829 168.2154,-761.1829 168.2154,4 -4,4"/>
<!-- n0 -->
<g id="node1" class="node">
<title>n0</title>
<ellipse fill="#1e90ff" stroke="#000000" cx="44.6935" cy="-736.4895" rx="20.8887" ry="20.8887"/>
<text text-anchor="middle" x="44.6935" y="-732.2895" font-family="Times,serif" font-size="14.00" fill="#000000">n0</text>
</g>
<!-- n1 -->
<g id="node2" class="node">
<title>n1</title>
<ellipse fill="none" stroke="#000000" cx="20.6935" cy="-659.1026" rx="20.8887" ry="20.8887"/>
<text text-anchor="middle" x="20.6935" y="-654.9026" font-family="Times,serif" font-size="14.00" fill="#000000">n1</text>
</g>
<!-- n0&#45;&gt;n1 -->
<g id="edge1" class="edge">
<title>n0-&gt;n1</title>
<path fill="none" stroke="#000000" d="M33.4867,-718.9292C29.9201,-710.3239 26.3408,-699.7069 23.5981,-689.8169"/>
<polygon fill="#000000" stroke="#000000" points="26.9308,-688.7203 21.0784,-679.8886 20.1459,-690.4423 26.9308,-688.7203"/>
</g>
<!-- n2 -->
<g id="node3" class="node">
<title>n2</title>
<ellipse fill="#00ff00" stroke="#000000" cx="39.6935" cy="-581.7157" rx="20.8887" ry="20.8887"/>
<text text-anchor="middle" x="39.6935" y="-577.5157" font-family="Times,serif" font-size="14.00" fill="#000000">n2</text>
</g>
<!-- n0&#45;&gt;n2 -->
<g id="edge2" class="edge">
<title>n0-&gt;n2</title>
<path fill="none" stroke="#000000" d="M47.8411,-715.7916C50.4187,-695.919 53.256,-665.0699 50.6935,-638.4091 49.8614,-629.7529 48.3305,-620.4544 46.6698,-611.9425"/>
<polygon fill="#000000" stroke="#000000" points="50.0753,-611.1272 44.6179,-602.046 43.2211,-612.5484 50.0753,-611.1272"/>
</g>
<!-- n3 -->
<g id="node4" class="node">
<title>n3</title>
<ellipse fill="none" stroke="#000000" cx="118.6935" cy="-659.1026" rx="20.8887" ry="20.8887"/>
<text text-anchor="middle" x="118.6935" y="-654.9026" font-family="Times,serif" font-size="14.00" fill="#000000">n3</text>
</g>
<!-- n0&#45;&gt;n3 -->
<g id="edge3" class="edge">
<title>n0-&gt;n3</title>
<path fill="none" stroke="#000000" d="M59.3135,-721.2003C70.1267,-709.8922 85.0248,-694.3122 97.1929,-681.5872"/>
<polygon fill="#000000" stroke="#000000" points="99.9741,-683.7431 104.3556,-674.0967 94.9148,-678.9052 99.9741,-683.7431"/>
</g>
<!-- n1&#45;&gt;n0 -->
<g id="edge5" class="edge">
<title>n1-&gt;n0</title>
<path fill="none" stroke="#000000" d="M31.9353,-676.7476C35.4979,-685.3564 39.0705,-695.9633 41.8065,-705.8389"/>
<polygon fill="#000000" stroke="#000000" points="38.4692,-706.918 44.3193,-715.7512 45.2546,-705.1977 38.4692,-706.918"/>
</g>
<!-- n1&#45;&gt;n2 -->
<g id="edge4" class="edge">
<title>n1-&gt;n2</title>
<path fill="none" stroke="#000000" d="M25.6855,-638.7701C27.7145,-630.5057 30.1008,-620.7865 32.3231,-611.735"/>
<polygon fill="#000000" stroke="#000000" points="35.7494,-612.4585 34.7348,-601.9124 28.9513,-610.7894 35.7494,-612.4585"/>
</g>
<!-- n4 -->
<g id="node5" class="node">
<title>n4</title>
<ellipse fill="none" stroke="#000000" cx="108.6935" cy="-581.7157" rx="20.8887" ry="20.8887"/>
<text text-anchor="middle" x="108.6935" y="-577.5157" font-family="Times,serif" font-size="14.00" fill="#000000">n4</text>
</g>
<!-- n3&#45;&gt;n4 -->
<g id="edge6" class="edge">
<title>n3-&gt;n4</title>
<path fill="none" stroke="#000000" d="M110.3058,-639.9732C108.4533,-631.6481 106.9313,-621.6833 106.0357,-612.3688"/>
<polygon fill="#000000" stroke="#000000" points="109.5164,-611.9733 105.3066,-602.2508 102.5345,-612.4765 109.5164,-611.9733"/>
</g>
<!-- n5 -->
<g id="node6" class="node">
<title>n5</title>
<ellipse fill="none" stroke="#000000" cx="137.6935" cy="-504.3288" rx="20.8887" ry="20.8887"/>
<text text-anchor="middle" x="137.6935" y="-500.1288" font-family="Times,serif" font-size="14.00" fill="#000000">n5</text>
</g>
<!-- n3&#45;&gt;n5 -->
<g id="edge7" class="edge">
<title>n3-&gt;n5</title>
<path fill="none" stroke="#000000" d="M119.8495,-638.2892C123.1284,-627.7622 127.5974,-614.6512 129.6935,-602.4091 133.5246,-580.0333 133.0944,-554.3643 133.0731,-534.8999"/>
<polygon fill="#000000" stroke="#000000" points="136.5736,-534.8056 133.133,-524.785 129.5737,-534.7641 136.5736,-534.8056"/>
</g>
<!-- n4&#45;&gt;n3 -->
<g id="edge8" class="edge">
<title>n4-&gt;n3</title>
<path fill="none" stroke="#000000" d="M117.0385,-600.6544C118.8957,-608.9524 120.4248,-618.907 121.3299,-628.2295"/>
<polygon fill="#000000" stroke="#000000" points="117.851,-628.6462 122.0711,-638.3643 124.8323,-628.1356 117.851,-628.6462"/>
</g>
<!-- n4&#45;&gt;n5 -->
<g id="edge9" class="edge">
<title>n4-&gt;n5</title>
<path fill="none" stroke="#000000" d="M110.4075,-560.9774C113.1306,-551.6426 117.1755,-540.5163 121.4153,-530.6056"/>
<polygon fill="#000000" stroke="#000000" points="124.7331,-531.7641 125.6784,-521.2116 118.3587,-528.8714 124.7331,-531.7641"/>
</g>
<!-- n5&#45;&gt;n3 -->
<g id="edge11" class="edge">
<title>n5-&gt;n3</title>
<path fill="none" stroke="#000000" d="M146.6013,-523.2909C150.7119,-543.1644 152.349,-575.2183 147.6935,-602.4091 145.8176,-613.3652 142.0411,-625.0174 137.6221,-634.8903"/>
<polygon fill="#000000" stroke="#000000" points="134.3703,-633.5681 133.0354,-644.0785 140.6333,-636.6945 134.3703,-633.5681"/>
</g>
<!-- n5&#45;&gt;n4 -->
<g id="edge10" class="edge">
<title>n5-&gt;n4</title>
<path fill="none" stroke="#000000" d="M135.9896,-525.0321C133.2898,-534.2937 129.2862,-545.3242 125.0811,-555.1825"/>
<polygon fill="#000000" stroke="#000000" points="121.7804,-553.9871 120.8495,-564.541 128.1587,-556.8712 121.7804,-553.9871"/>
</g>
<!-- n6 -->
<g id="node7" class="node">
<title>n6</title>
<ellipse fill="none" stroke="#000000" cx="137.6935" cy="-426.9419" rx="20.8887" ry="20.8887"/>
<text text-anchor="middle" x="137.6935" y="-422.7419" font-family="Times,serif" font-size="14.00" fill="#000000">n6</text>
</g>
<!-- n5&#45;&gt;n6 -->
<g id="edge12" class="edge">
<title>n5-&gt;n6</title>
<path fill="none" stroke="#000000" d="M137.6935,-483.5905C137.6935,-475.6968 137.6935,-466.522 137.6935,-457.8845"/>
<polygon fill="#000000" stroke="#000000" points="141.1936,-457.7373 137.6935,-447.7374 134.1936,-457.7374 141.1936,-457.7373"/>
</g>
<!-- n7 -->
<g id="node8" class="node">
<title>n7</title>
<ellipse fill="none" stroke="#000000" cx="108.6935" cy="-349.555" rx="20.8887" ry="20.8887"/>
<text text-anchor="middle" x="108.6935" y="-345.355" font-family="Times,serif" font-size="14.00" fill="#000000">n7</text>
</g>
<!-- n6&#45;&gt;n7 -->
<g id="edge13" class="edge">
<title>n6-&gt;n7</title>
<path fill="none" stroke="#000000" d="M125.5374,-409.7672C121.3203,-401.0173 116.9374,-390.1147 113.4909,-380.0006"/>
<polygon fill="#000000" stroke="#000000" points="116.7597,-378.73 110.3973,-370.2583 110.088,-380.8486 116.7597,-378.73"/>
</g>
<!-- n8 -->
<g id="node9" class="node">
<title>n8</title>
<ellipse fill="none" stroke="#000000" cx="137.6935" cy="-272.1681" rx="20.8887" ry="20.8887"/>
<text text-anchor="middle" x="137.6935" y="-267.9681" font-family="Times,serif" font-size="14.00" fill="#000000">n8</text>
</g>
<!-- n6&#45;&gt;n8 -->
<g id="edge14" class="edge">
<title>n6-&gt;n8</title>
<path fill="none" stroke="#000000" d="M130.1936,-407.5261C129.3401,-396.5793 129.5841,-382.6516 129.6935,-370.2484 129.8557,-351.855 129.8557,-347.255 129.6935,-328.8615 129.6157,-320.0437 129.4699,-310.4552 129.6988,-301.7152"/>
<polygon fill="#000000" stroke="#000000" points="133.2016,-301.7426 130.1936,-291.5838 126.2099,-301.4011 133.2016,-301.7426"/>
</g>
<!-- n7&#45;&gt;n6 -->
<g id="edge16" class="edge">
<title>n7-&gt;n6</title>
<path fill="none" stroke="#000000" d="M120.7085,-366.4377C124.9531,-375.2039 129.3783,-386.188 132.8574,-396.383"/>
<polygon fill="#000000" stroke="#000000" points="129.6142,-397.734 135.9794,-406.2036 136.2853,-395.6132 129.6142,-397.734"/>
</g>
<!-- n7&#45;&gt;n8 -->
<g id="edge15" class="edge">
<title>n7-&gt;n8</title>
<path fill="none" stroke="#000000" d="M110.4075,-328.8167C113.1306,-319.4819 117.1755,-308.3556 121.4153,-298.4449"/>
<polygon fill="#000000" stroke="#000000" points="124.7331,-299.6034 125.6784,-289.0508 118.3587,-296.7107 124.7331,-299.6034"/>
</g>
<!-- n8&#45;&gt;n6 -->
<g id="edge18" class="edge">
<title>n8-&gt;n6</title>
<path fill="none" stroke="#000000" d="M146.0165,-291.3237C147.3362,-302.3095 147.5832,-316.3599 147.6935,-328.8615 147.8557,-347.255 147.8557,-351.855 147.6935,-370.2484 147.6151,-379.1363 147.4676,-388.8069 146.9147,-397.6027"/>
<polygon fill="#000000" stroke="#000000" points="143.4087,-397.5174 146.0165,-407.7862 150.3816,-398.1324 143.4087,-397.5174"/>
</g>
<!-- n8&#45;&gt;n7 -->
<g id="edge17" class="edge">
<title>n8-&gt;n7</title>
<path fill="none" stroke="#000000" d="M135.9896,-292.8714C133.2898,-302.133 129.2862,-313.1635 125.0811,-323.0217"/>
<polygon fill="#000000" stroke="#000000" points="121.7804,-321.8264 120.8495,-332.3803 128.1587,-324.7105 121.7804,-321.8264"/>
</g>
<!-- n9 -->
<g id="node10" class="node">
<title>n9</title>
<ellipse fill="none" stroke="#000000" cx="113.6935" cy="-194.7812" rx="20.8887" ry="20.8887"/>
<text text-anchor="middle" x="113.6935" y="-190.5812" font-family="Times,serif" font-size="14.00" fill="#000000">n9</text>
</g>
<!-- n8&#45;&gt;n9 -->
<g id="edge19" class="edge">
<title>n8-&gt;n9</title>
<path fill="none" stroke="#000000" d="M131.5129,-252.239C128.8814,-243.7539 125.7573,-233.6804 122.8655,-224.356"/>
<polygon fill="#000000" stroke="#000000" points="126.1582,-223.1571 119.8531,-214.6427 119.4724,-225.2307 126.1582,-223.1571"/>
</g>
<!-- n10 -->
<g id="node11" class="node">
<title>n10</title>
<ellipse fill="#00ff00" stroke="#000000" cx="111.6935" cy="-25.5219" rx="25.5439" ry="25.5439"/>
<text text-anchor="middle" x="111.6935" y="-21.3219" font-family="Times,serif" font-size="14.00" fill="#000000">n10</text>
</g>
<!-- n9&#45;&gt;n10 -->
<g id="edge20" class="edge">
<title>n9-&gt;n10</title>
<path fill="none" stroke="#000000" d="M109.216,-174.427C107.0775,-163.6798 104.7565,-150.2346 103.6935,-138.0877 101.7156,-115.4879 102.2277,-109.6826 103.6935,-87.0439 104.2426,-78.5619 105.2134,-69.4632 106.2937,-60.934"/>
<polygon fill="#000000" stroke="#000000" points="109.7799,-61.2698 107.6447,-50.8924 102.8425,-60.3364 109.7799,-61.2698"/>
</g>
<!-- n11 -->
<g id="node12" class="node">
<title>n11</title>
<ellipse fill="none" stroke="#000000" cx="138.6935" cy="-112.5658" rx="25.5439" ry="25.5439"/>
<text text-anchor="middle" x="138.6935" y="-108.3658" font-family="Times,serif" font-size="14.00" fill="#000000">n11</text>
</g>
<!-- n9&#45;&gt;n11 -->
<g id="edge21" class="edge">
<title>n9-&gt;n11</title>
<path fill="none" stroke="#000000" d="M114.0496,-174.0347C116.0162,-165.0441 119.065,-154.315 122.4332,-144.3561"/>
<polygon fill="#000000" stroke="#000000" points="125.7981,-145.3413 125.8797,-134.7467 119.2091,-142.978 125.7981,-145.3413"/>
</g>
<!-- n11&#45;&gt;n8 -->
<g id="edge24" class="edge">
<title>n11-&gt;n8</title>
<path fill="none" stroke="#000000" d="M141.3945,-138.367C143.2247,-159.1827 145.079,-189.217 143.6935,-215.4746 143.2497,-223.8836 142.4382,-232.965 141.5525,-241.3431"/>
<polygon fill="#000000" stroke="#000000" points="138.0525,-241.1472 140.4128,-251.4758 145.0086,-241.9297 138.0525,-241.1472"/>
</g>
<!-- n11&#45;&gt;n9 -->
<g id="edge22" class="edge">
<title>n11-&gt;n9</title>
<path fill="none" stroke="#000000" d="M137.2114,-138.1707C134.9345,-147.5096 131.7446,-158.0993 128.3617,-167.5726"/>
<polygon fill="#000000" stroke="#000000" points="125.0819,-166.3506 124.7965,-176.9416 131.6242,-168.8402 125.0819,-166.3506"/>
</g>
<!-- n11&#45;&gt;n10 -->
<g id="edge23" class="edge">
<title>n11-&gt;n10</title>
<path fill="none" stroke="#000000" d="M131.0286,-87.8553C128.3265,-79.1444 125.2383,-69.1884 122.3349,-59.8284"/>
<polygon fill="#000000" stroke="#000000" points="125.5896,-58.507 119.2841,-49.9929 118.9039,-60.5809 125.5896,-58.507"/>
</g>
</g>
</svg>