<svg class="railroad-diagram" width="401.5" height="62" viewBox="0 0 401.5 62" xmlns="http://www.w3.org/2000/svg" xmlns:xlink="http://www.w3.org/1999/xlink">
<g transform="translate(.5 .5)">
<g>
<path d="M20 21v20m10 -20v20m-10 -10h20"></path>
</g>
<path d="M40 31h10"></path>
<g>
<path d="M50 31h0"></path>
<path d="M351.5 31h0"></path>
<g class="terminal ">
<path d="M50 31h0"></path>
<path d="M112.5 31h0"></path>
<rect x="50" y="20" width="62.5" height="22" rx="10" ry="10"></rect>
<text x="81.25" y="35">while</text>
</g>
<path d="M112.5 31h10"></path>
<path d="M122.5 31h10"></path>
<g class="non-terminal ">
<path d="M132.5 31h0"></path>
<path d="M229 31h0"></path>
<rect x="132.5" y="20" width="96.5" height="22"></rect>
<text x="180.75" y="35">выражение</text>
</g>
<path d="M229 31h10"></path>
<path d="M239 31h10"></path>
<g class="terminal ">
<path d="M249 31h0"></path>
<path d="M277.5 31h0"></path>
<rect x="249" y="20" width="28.5" height="22" rx="10" ry="10"></rect>
<text x="263.25" y="35">:</text>
</g>
<path d="M277.5 31h10"></path>
<path d="M287.5 31h10"></path>
<g class="non-terminal ">
<path d="M297.5 31h0"></path>
<path d="M351.5 31h0"></path>
<rect x="297.5" y="20" width="54" height="22"></rect>
<text x="324.5" y="35">блок</text>
</g>
</g>
<path d="M351.5 31h10"></path>
<path d="M 361.5 31 h 20 m -10 -10 v 20 m 10 -20 v 20"></path>
</g>
<style>
    svg {
        background-color: hsl(30,20%,95%);
    }
    path {
        stroke-width: 3;
        stroke: black;
        fill: rgba(0,0,0,0);
    }
    text {
        font: bold 14px monospace;
        text-anchor: middle;
        white-space: pre;
    }
    text.diagram-text {
        font-size: 12px;
    }
    text.diagram-arrow {
        font-size: 16px;
    }
    text.label {
        text-anchor: start;
    }
    text.comment {
        font: italic 12px monospace;
    }
    g.non-terminal text {
        /&#42;font-style: italic;&#42;/
    }
    rect {
        stroke-width: 3;
        stroke: black;
        fill: hsl(120,100%,90%);
    }
    rect.group-box {
        stroke: gray;
        stroke-dasharray: 10 5;
        fill: none;
    }
    path.diagram-text {
        stroke-width: 3;
        stroke: black;
        fill: white;
        cursor: help;
    }
    g.diagram-text:hover path.diagram-text {
        fill: #eee;
    }</style>
</svg>
