<svg class="railroad-diagram" width="772.5" height="100" viewBox="0 0 772.5 100" xmlns="http://www.w3.org/2000/svg" xmlns:xlink="http://www.w3.org/1999/xlink">
<g transform="translate(.5 .5)">
<g>
<path d="M20 59v20m10 -20v20m-10 -10h20"></path>
</g>
<path d="M40 69h10"></path>
<g>
<path d="M50 69h0"></path>
<path d="M722.5 69h0"></path>
<g class="non-terminal ">
<path d="M50 69h0"></path>
<path d="M146.5 69h0"></path>
<rect x="50" y="58" width="96.5" height="22"></rect>
<text x="98.25" y="73">выражение</text>
</g>
<path d="M146.5 69h10"></path>
<path d="M156.5 69h10"></path>
<g class="terminal ">
<path d="M166.5 69h0"></path>
<path d="M212 69h0"></path>
<rect x="166.5" y="58" width="45.5" height="22" rx="10" ry="10"></rect>
<text x="189.25" y="73">for</text>
</g>
<path d="M212 69h10"></path>
<path d="M222 69h10"></path>
<g class="non-terminal ">
<path d="M232 69h0"></path>
<path d="M328.5 69h0"></path>
<rect x="232" y="58" width="96.5" height="22"></rect>
<text x="280.25" y="73">выражение</text>
</g>
<path d="M328.5 69h10"></path>
<path d="M338.5 69h10"></path>
<g class="terminal ">
<path d="M348.5 69h0"></path>
<path d="M385.5 69h0"></path>
<rect x="348.5" y="58" width="37" height="22" rx="10" ry="10"></rect>
<text x="367" y="73">in</text>
</g>
<path d="M385.5 69h10"></path>
<path d="M395.5 69h10"></path>
<g class="non-terminal ">
<path d="M405.5 69h0"></path>
<path d="M502 69h0"></path>
<rect x="405.5" y="58" width="96.5" height="22"></rect>
<text x="453.75" y="73">выражение</text>
</g>
<path d="M502 69h10"></path>
<g>
<path d="M512 69h0"></path>
<path d="M722.5 69h0"></path>
<path d="M512 69a10 10 0 0 0 10 -10v-29a10 10 0 0 1 10 -10"></path>
<g>
<path d="M532 20h170.5"></path>
</g>
<path d="M702.5 20a10 10 0 0 1 10 10v29a10 10 0 0 0 10 10"></path>
<path d="M512 69h20"></path>
<g>
<path d="M532 69h0"></path>
<path d="M702.5 69h0"></path>
<path d="M532 69a10 10 0 0 0 10 -10v-10a10 10 0 0 1 10 -10"></path>
<g class="non-terminal ">
<path d="M552 39h0"></path>
<path d="M682.5 39h0"></path>
<rect x="552" y="28" width="130.5" height="22"></rect>
<text x="617.25" y="43">включение-for</text>
</g>
<path d="M682.5 39a10 10 0 0 1 10 10v10a10 10 0 0 0 10 10"></path>
<path d="M532 69h20"></path>
<g class="non-terminal ">
<path d="M552 69h4.25"></path>
<path d="M678.25 69h4.25"></path>
<rect x="556.25" y="58" width="122" height="22"></rect>
<text x="617.25" y="73">включение-if</text>
</g>
<path d="M682.5 69h20"></path>
</g>
<path d="M702.5 69h20"></path>
</g>
</g>
<path d="M722.5 69h10"></path>
<path d="M 732.5 69 h 20 m -10 -10 v 20 m 10 -20 v 20"></path>
</g>
<style>
    svg {
        background-color: hsl(30,20%,95%);
    }
    path {
        stroke-width: 3;
        stroke: black;
        fill: rgba(0,0,0,0);
    }
    text {
        font: bold 14px monospace;
        text-anchor: middle;
        white-space: pre;
    }
    text.diagram-text {
        font-size: 12px;
    }
    text.diagram-arrow {
        font-size: 16px;
    }
    text.label {
        text-anchor: start;
    }
    text.comment {
        font: italic 12px monospace;
    }
    g.non-terminal text {
        /&#42;font-style: italic;&#42;/
    }
    rect {
        stroke-width: 3;
        stroke: black;
        fill: hsl(120,100%,90%);
    }
    rect.group-box {
        stroke: gray;
        stroke-dasharray: 10 5;
        fill: none;
    }
    path.diagram-text {
        stroke-width: 3;
        stroke: black;
        fill: white;
        cursor: help;
    }
    g.diagram-text:hover path.diagram-text {
        fill: #eee;
    }</style>
</svg>
