<svg class="railroad-diagram" width="551" height="101" viewBox="0 0 551 101" xmlns="http://www.w3.org/2000/svg" xmlns:xlink="http://www.w3.org/1999/xlink">
<g transform="translate(.5 .5)">
<g>
<path d="M20 60v20m10 -20v20m-10 -10h20"></path>
</g>
<g>
<path d="M40 70h0"></path>
<path d="M511 70h0"></path>
<path d="M40 70a10 10 0 0 0 10 -10v-19a10 10 0 0 1 10 -10"></path>
<g>
<path d="M60 31h15"></path>
<path d="M476 31h15"></path>
<g class="terminal ">
<path d="M75 31h0"></path>
<path d="M112 31h0"></path>
<rect x="75" y="20" width="37" height="22" rx="10" ry="10"></rect>
<text x="93.5" y="35">if</text>
</g>
<path d="M112 31h10"></path>
<path d="M122 31h10"></path>
<g class="non-terminal ">
<path d="M132 31h0"></path>
<path d="M228.5 31h0"></path>
<rect x="132" y="20" width="96.5" height="22"></rect>
<text x="180.25" y="35">выражение</text>
</g>
<path d="M228.5 31h10"></path>
<path d="M238.5 31h10"></path>
<g class="terminal ">
<path d="M248.5 31h0"></path>
<path d="M277 31h0"></path>
<rect x="248.5" y="20" width="28.5" height="22" rx="10" ry="10"></rect>
<text x="262.75" y="35">:</text>
</g>
<path d="M277 31h10"></path>
<path d="M287 31h10"></path>
<g class="non-terminal ">
<path d="M297 31h0"></path>
<path d="M351 31h0"></path>
<rect x="297" y="20" width="54" height="22"></rect>
<text x="324" y="35">блок</text>
</g>
<path d="M351 31h10"></path>
<path d="M361 31h10"></path>
<g class="non-terminal ">
<path d="M371 31h0"></path>
<path d="M476 31h0"></path>
<rect x="371" y="20" width="105" height="22"></rect>
<text x="423.5" y="35">часть-elif</text>
</g>
</g>
<path d="M491 31a10 10 0 0 1 10 10v19a10 10 0 0 0 10 10"></path>
<path d="M40 70h20"></path>
<g>
<path d="M60 70h0"></path>
<path d="M491 70h0"></path>
<g class="terminal ">
<path d="M60 70h0"></path>
<path d="M97 70h0"></path>
<rect x="60" y="59" width="37" height="22" rx="10" ry="10"></rect>
<text x="78.5" y="74">if</text>
</g>
<path d="M97 70h10"></path>
<path d="M107 70h10"></path>
<g class="non-terminal ">
<path d="M117 70h0"></path>
<path d="M213.5 70h0"></path>
<rect x="117" y="59" width="96.5" height="22"></rect>
<text x="165.25" y="74">выражение</text>
</g>
<path d="M213.5 70h10"></path>
<path d="M223.5 70h10"></path>
<g class="terminal ">
<path d="M233.5 70h0"></path>
<path d="M262 70h0"></path>
<rect x="233.5" y="59" width="28.5" height="22" rx="10" ry="10"></rect>
<text x="247.75" y="74">:</text>
</g>
<path d="M262 70h10"></path>
<path d="M272 70h10"></path>
<g class="non-terminal ">
<path d="M282 70h0"></path>
<path d="M336 70h0"></path>
<rect x="282" y="59" width="54" height="22"></rect>
<text x="309" y="74">блок</text>
</g>
<path d="M336 70h10"></path>
<g>
<path d="M346 70h0"></path>
<path d="M491 70h0"></path>
<path d="M346 70a10 10 0 0 0 10 -10v0a10 10 0 0 1 10 -10"></path>
<g>
<path d="M366 50h105"></path>
</g>
<path d="M471 50a10 10 0 0 1 10 10v0a10 10 0 0 0 10 10"></path>
<path d="M346 70h20"></path>
<g class="non-terminal ">
<path d="M366 70h0"></path>
<path d="M471 70h0"></path>
<rect x="366" y="59" width="105" height="22"></rect>
<text x="418.5" y="74">часть-else</text>
</g>
<path d="M471 70h20"></path>
</g>
</g>
<path d="M491 70h20"></path>
</g>
<path d="M 511 70 h 20 m -10 -10 v 20 m 10 -20 v 20"></path>
</g>
<style>
    svg {
        background-color: hsl(30,20%,95%);
    }
    path {
        stroke-width: 3;
        stroke: black;
        fill: rgba(0,0,0,0);
    }
    text {
        font: bold 14px monospace;
        text-anchor: middle;
        white-space: pre;
    }
    text.diagram-text {
        font-size: 12px;
    }
    text.diagram-arrow {
        font-size: 16px;
    }
    text.label {
        text-anchor: start;
    }
    text.comment {
        font: italic 12px monospace;
    }
    g.non-terminal text {
        /&#42;font-style: italic;&#42;/
    }
    rect {
        stroke-width: 3;
        stroke: black;
        fill: hsl(120,100%,90%);
    }
    rect.group-box {
        stroke: gray;
        stroke-dasharray: 10 5;
        fill: none;
    }
    path.diagram-text {
        stroke-width: 3;
        stroke: black;
        fill: white;
        cursor: help;
    }
    g.diagram-text:hover path.diagram-text {
        fill: #eee;
    }</style>
</svg>
