<?xml version="1.0" encoding="UTF-8" standalone="no"?>
<!DOCTYPE svg PUBLIC "-//W3C//DTD SVG 1.1//EN"
 "http://www.w3.org/Graphics/SVG/1.1/DTD/svg11.dtd">
<!-- Generated by graphviz version 2.46.0 (20210118.1747)
 -->
<!-- Title: G Pages: 1 -->
<svg width="822pt" height="260pt"
 viewBox="0.00 0.00 822.00 260.00" xmlns="http://www.w3.org/2000/svg" xmlns:xlink="http://www.w3.org/1999/xlink">
<g id="graph0" class="graph" transform="scale(1 1) rotate(0) translate(4 256)">
<title>G</title>
<polygon fill="white" stroke="transparent" points="-4,4 -4,-256 818,-256 818,4 -4,4"/>
<!-- types -->
<g id="node1" class="node">
<title>types</title>
<polygon fill="none" stroke="black" points="701,-252 539,-252 539,-216 701,-216 701,-252"/>
<text text-anchor="middle" x="620" y="-230.3" font-family="Times New Roman,serif" font-size="14.00">Иерархия типов данных</text>
</g>
<!-- Sequences -->
<g id="node2" class="node">
<title>Sequences</title>
<polygon fill="none" stroke="black" points="325,-180 183,-180 183,-144 325,-144 325,-180"/>
<text text-anchor="middle" x="254" y="-158.3" font-family="Times New Roman,serif" font-size="14.00">Последовательности</text>
</g>
<!-- types&#45;&gt;Sequences -->
<g id="edge7" class="edge">
<title>types&#45;&gt;Sequences</title>
<path fill="none" stroke="black" d="M538.77,-217.46C478.13,-205.87 395.62,-190.09 335.02,-178.5"/>
<polygon fill="black" stroke="black" points="335.59,-175.04 325.11,-176.6 334.28,-181.92 335.59,-175.04"/>
</g>
<!-- Number -->
<g id="node5" class="node">
<title>Number</title>
<polygon fill="none" stroke="black" points="516,-180 462,-180 462,-144 516,-144 516,-180"/>
<text text-anchor="middle" x="489" y="-158.3" font-family="Times New Roman,serif" font-size="14.00">Числа</text>
</g>
<!-- types&#45;&gt;Number -->
<g id="edge2" class="edge">
<title>types&#45;&gt;Number</title>
<path fill="none" stroke="black" d="M587.95,-215.88C568.99,-205.74 544.91,-192.88 525.26,-182.37"/>
<polygon fill="black" stroke="black" points="526.76,-179.21 516.29,-177.58 523.46,-185.38 526.76,-179.21"/>
</g>
<!-- Set -->
<g id="node6" class="node">
<title>Set</title>
<polygon fill="none" stroke="black" points="662.5,-180 577.5,-180 577.5,-144 662.5,-144 662.5,-180"/>
<text text-anchor="middle" x="620" y="-158.3" font-family="Times New Roman,serif" font-size="14.00">Множества</text>
</g>
<!-- types&#45;&gt;Set -->
<g id="edge15" class="edge">
<title>types&#45;&gt;Set</title>
<path fill="none" stroke="black" d="M620,-215.7C620,-207.98 620,-198.71 620,-190.11"/>
<polygon fill="black" stroke="black" points="623.5,-190.1 620,-180.1 616.5,-190.1 623.5,-190.1"/>
</g>
<!-- None -->
<g id="node7" class="node">
<title>None</title>
<ellipse fill="none" stroke="black" cx="711" cy="-162" rx="30.59" ry="18"/>
<text text-anchor="middle" x="711" y="-158.3" font-family="Times New Roman,serif" font-size="14.00">None</text>
</g>
<!-- types&#45;&gt;None -->
<g id="edge1" class="edge">
<title>types&#45;&gt;None</title>
<path fill="none" stroke="black" d="M642.49,-215.7C655.4,-205.77 671.65,-193.27 685.08,-182.94"/>
<polygon fill="black" stroke="black" points="687.24,-185.7 693.03,-176.82 682.97,-180.15 687.24,-185.7"/>
</g>
<!-- dict -->
<g id="node19" class="node">
<title>dict</title>
<ellipse fill="none" stroke="black" cx="787" cy="-162" rx="27" ry="18"/>
<text text-anchor="middle" x="787" y="-158.3" font-family="Times New Roman,serif" font-size="14.00">dict</text>
</g>
<!-- types&#45;&gt;dict -->
<g id="edge18" class="edge">
<title>types&#45;&gt;dict</title>
<path fill="none" stroke="black" d="M663.93,-215.95C689.48,-205.85 722.23,-192.6 751,-180 752.8,-179.21 754.65,-178.38 756.51,-177.54"/>
<polygon fill="black" stroke="black" points="758.16,-180.64 765.77,-173.27 755.22,-174.28 758.16,-180.64"/>
</g>
<!-- Immutable -->
<g id="node3" class="node">
<title>Immutable</title>
<polygon fill="none" stroke="black" points="172,-108 66,-108 66,-72 172,-72 172,-108"/>
<text text-anchor="middle" x="119" y="-86.3" font-family="Times New Roman,serif" font-size="14.00">Неизменяемые</text>
</g>
<!-- Sequences&#45;&gt;Immutable -->
<g id="edge8" class="edge">
<title>Sequences&#45;&gt;Immutable</title>
<path fill="none" stroke="black" d="M220.98,-143.88C202.92,-134.51 180.35,-122.81 161.05,-112.8"/>
<polygon fill="black" stroke="black" points="162.64,-109.69 152.15,-108.19 159.42,-115.9 162.64,-109.69"/>
</g>
<!-- mutable -->
<g id="node4" class="node">
<title>mutable</title>
<polygon fill="none" stroke="black" points="300,-108 208,-108 208,-72 300,-72 300,-108"/>
<text text-anchor="middle" x="254" y="-86.3" font-family="Times New Roman,serif" font-size="14.00">Изменяемые</text>
</g>
<!-- Sequences&#45;&gt;mutable -->
<g id="edge12" class="edge">
<title>Sequences&#45;&gt;mutable</title>
<path fill="none" stroke="black" d="M254,-143.7C254,-135.98 254,-126.71 254,-118.11"/>
<polygon fill="black" stroke="black" points="257.5,-118.1 254,-108.1 250.5,-118.1 257.5,-118.1"/>
</g>
<!-- str -->
<g id="node12" class="node">
<title>str</title>
<ellipse fill="none" stroke="black" cx="27" cy="-18" rx="27" ry="18"/>
<text text-anchor="middle" x="27" y="-14.3" font-family="Times New Roman,serif" font-size="14.00">str</text>
</g>
<!-- Immutable&#45;&gt;str -->
<g id="edge9" class="edge">
<title>Immutable&#45;&gt;str</title>
<path fill="none" stroke="black" d="M96.26,-71.7C82.95,-61.57 66.12,-48.76 52.38,-38.31"/>
<polygon fill="black" stroke="black" points="54.36,-35.42 44.29,-32.15 50.12,-40.99 54.36,-35.42"/>
</g>
<!-- tuple -->
<g id="node13" class="node">
<title>tuple</title>
<ellipse fill="none" stroke="black" cx="101" cy="-18" rx="28.7" ry="18"/>
<text text-anchor="middle" x="101" y="-14.3" font-family="Times New Roman,serif" font-size="14.00">tuple</text>
</g>
<!-- Immutable&#45;&gt;tuple -->
<g id="edge10" class="edge">
<title>Immutable&#45;&gt;tuple</title>
<path fill="none" stroke="black" d="M114.55,-71.7C112.55,-63.9 110.13,-54.51 107.9,-45.83"/>
<polygon fill="black" stroke="black" points="111.28,-44.92 105.4,-36.1 104.5,-46.66 111.28,-44.92"/>
</g>
<!-- bytes -->
<g id="node14" class="node">
<title>bytes</title>
<ellipse fill="none" stroke="black" cx="178" cy="-18" rx="30.59" ry="18"/>
<text text-anchor="middle" x="178" y="-14.3" font-family="Times New Roman,serif" font-size="14.00">bytes</text>
</g>
<!-- Immutable&#45;&gt;bytes -->
<g id="edge11" class="edge">
<title>Immutable&#45;&gt;bytes</title>
<path fill="none" stroke="black" d="M133.58,-71.7C141.05,-62.84 150.24,-51.93 158.33,-42.34"/>
<polygon fill="black" stroke="black" points="161.02,-44.57 164.79,-34.67 155.67,-40.06 161.02,-44.57"/>
</g>
<!-- list -->
<g id="node15" class="node">
<title>list</title>
<ellipse fill="none" stroke="black" cx="254" cy="-18" rx="27" ry="18"/>
<text text-anchor="middle" x="254" y="-14.3" font-family="Times New Roman,serif" font-size="14.00">list</text>
</g>
<!-- mutable&#45;&gt;list -->
<g id="edge13" class="edge">
<title>mutable&#45;&gt;list</title>
<path fill="none" stroke="black" d="M254,-71.7C254,-63.98 254,-54.71 254,-46.11"/>
<polygon fill="black" stroke="black" points="257.5,-46.1 254,-36.1 250.5,-46.1 257.5,-46.1"/>
</g>
<!-- bytearray -->
<g id="node16" class="node">
<title>bytearray</title>
<ellipse fill="none" stroke="black" cx="343" cy="-18" rx="44.39" ry="18"/>
<text text-anchor="middle" x="343" y="-14.3" font-family="Times New Roman,serif" font-size="14.00">bytearray</text>
</g>
<!-- mutable&#45;&gt;bytearray -->
<g id="edge14" class="edge">
<title>mutable&#45;&gt;bytearray</title>
<path fill="none" stroke="black" d="M276,-71.7C287.99,-62.26 302.94,-50.51 315.68,-40.49"/>
<polygon fill="black" stroke="black" points="317.97,-43.14 323.67,-34.2 313.65,-37.63 317.97,-43.14"/>
</g>
<!-- int -->
<g id="node8" class="node">
<title>int</title>
<ellipse fill="none" stroke="black" cx="345" cy="-90" rx="27" ry="18"/>
<text text-anchor="middle" x="345" y="-86.3" font-family="Times New Roman,serif" font-size="14.00">int</text>
</g>
<!-- Number&#45;&gt;int -->
<g id="edge3" class="edge">
<title>Number&#45;&gt;int</title>
<path fill="none" stroke="black" d="M461.91,-147.83C437.35,-135.89 401.18,-118.31 375.58,-105.87"/>
<polygon fill="black" stroke="black" points="376.86,-102.6 366.34,-101.37 373.8,-108.89 376.86,-102.6"/>
</g>
<!-- bool -->
<g id="node9" class="node">
<title>bool</title>
<ellipse fill="none" stroke="black" cx="417" cy="-90" rx="27.1" ry="18"/>
<text text-anchor="middle" x="417" y="-86.3" font-family="Times New Roman,serif" font-size="14.00">bool</text>
</g>
<!-- Number&#45;&gt;bool -->
<g id="edge4" class="edge">
<title>Number&#45;&gt;bool</title>
<path fill="none" stroke="black" d="M471.2,-143.7C461.51,-134.28 449.44,-122.53 439.14,-112.53"/>
<polygon fill="black" stroke="black" points="441.3,-109.74 431.69,-105.28 436.42,-114.76 441.3,-109.74"/>
</g>
<!-- float -->
<g id="node10" class="node">
<title>float</title>
<ellipse fill="none" stroke="black" cx="489" cy="-90" rx="27" ry="18"/>
<text text-anchor="middle" x="489" y="-86.3" font-family="Times New Roman,serif" font-size="14.00">float</text>
</g>
<!-- Number&#45;&gt;float -->
<g id="edge5" class="edge">
<title>Number&#45;&gt;float</title>
<path fill="none" stroke="black" d="M489,-143.7C489,-135.98 489,-126.71 489,-118.11"/>
<polygon fill="black" stroke="black" points="492.5,-118.1 489,-108.1 485.5,-118.1 492.5,-118.1"/>
</g>
<!-- complex -->
<g id="node11" class="node">
<title>complex</title>
<ellipse fill="none" stroke="black" cx="576" cy="-90" rx="42.49" ry="18"/>
<text text-anchor="middle" x="576" y="-86.3" font-family="Times New Roman,serif" font-size="14.00">complex</text>
</g>
<!-- Number&#45;&gt;complex -->
<g id="edge6" class="edge">
<title>Number&#45;&gt;complex</title>
<path fill="none" stroke="black" d="M510.51,-143.7C522.23,-134.26 536.84,-122.51 549.29,-112.49"/>
<polygon fill="black" stroke="black" points="551.51,-115.2 557.11,-106.2 547.12,-109.74 551.51,-115.2"/>
</g>
<!-- set -->
<g id="node17" class="node">
<title>set</title>
<ellipse fill="none" stroke="black" cx="663" cy="-90" rx="27" ry="18"/>
<text text-anchor="middle" x="663" y="-86.3" font-family="Times New Roman,serif" font-size="14.00">set</text>
</g>
<!-- Set&#45;&gt;set -->
<g id="edge16" class="edge">
<title>Set&#45;&gt;set</title>
<path fill="none" stroke="black" d="M630.63,-143.7C635.78,-135.32 642.05,-125.1 647.71,-115.9"/>
<polygon fill="black" stroke="black" points="650.83,-117.5 653.08,-107.14 644.87,-113.83 650.83,-117.5"/>
</g>
<!-- frozenset -->
<g id="node18" class="node">
<title>frozenset</title>
<ellipse fill="none" stroke="black" cx="752" cy="-90" rx="44.39" ry="18"/>
<text text-anchor="middle" x="752" y="-86.3" font-family="Times New Roman,serif" font-size="14.00">frozenset</text>
</g>
<!-- Set&#45;&gt;frozenset -->
<g id="edge17" class="edge">
<title>Set&#45;&gt;frozenset</title>
<path fill="none" stroke="black" d="M652.29,-143.88C672.01,-133.42 697.23,-120.04 717.37,-109.37"/>
<polygon fill="black" stroke="black" points="719.03,-112.45 726.22,-104.67 715.75,-106.26 719.03,-112.45"/>
</g>
</g>
</svg>
